<svg width="200" height="100" viewBox="0 0 200 100" fill="none" xmlns="http://www.w3.org/2000/svg">
<mask id="path-1-outside-1_5_12" maskUnits="userSpaceOnUse" x="98" y="15" width="94" height="62" fill="black">
<rect fill="white" x="98" y="15" width="94" height="62"/>
<path d="M100 15H192V77H100V15Z"/>
</mask>
<path d="M102 77V15H98V77H102Z" fill="black" mask="url(#path-1-outside-1_5_12)"/>
<path d="M107 39V21.25H113.35C117.975 21.25 120.275 22.825 120.275 26.175C120.275 28.25 118.975 29.6 116.725 29.825C119.475 30.05 121.025 31.55 121.025 33.975C121.025 37.25 118.7 39 114.35 39H107ZM110.25 36.25H114.4C116.425 36.25 117.7 35.4 117.7 33.75C117.7 32.125 116.45 31.25 114.4 31.25H110.25V36.25ZM110.25 28.7H113.55C115.675 28.7 116.95 27.9 116.95 26.375C116.95 24.775 115.75 24 113.55 24H110.25V28.7ZM124.065 21.25H136.015V24.075H127.315V28.7H135.715V31.5H127.315V36.175H136.215V39H124.065V21.25ZM139.275 21.25H143.075L150.625 34.425V21.25H153.9V39H149.975L142.525 26.175V39H139.275V21.25ZM172.903 32.8C172.203 36.875 169.553 39.4 165.378 39.4C160.178 39.4 156.978 35.375 156.978 30.15C156.978 24.9 160.153 20.85 165.378 20.85C169.353 20.85 172.028 23.225 172.803 27.15L169.403 27.3C168.928 25 167.453 23.675 165.328 23.675C161.878 23.675 160.353 26.55 160.353 30.15C160.353 33.725 161.903 36.575 165.328 36.575C167.553 36.575 169.053 35.15 169.478 32.625L172.903 32.8ZM175.848 39V21.25H179.098V28.65H186.423V21.25H189.673V39H186.423V31.475H179.098V39H175.848ZM107 52.25H110.8L118.35 65.425V52.25H121.625V70H117.7L110.25 57.175V70H107V52.25ZM133.178 70.4C127.903 70.4 124.703 66.875 124.703 61.15C124.703 55.375 127.903 51.85 133.178 51.85C138.478 51.85 141.628 55.375 141.628 61.15C141.628 66.875 138.478 70.4 133.178 70.4ZM128.103 61.15C128.103 65.15 129.978 67.575 133.178 67.575C136.378 67.575 138.278 65.15 138.278 61.15C138.278 57.1 136.378 54.675 133.178 54.675C129.978 54.675 128.103 57.1 128.103 61.15ZM150.302 52.25C155.952 52.25 159.127 55.45 159.127 61.15C159.127 66.825 156.027 70 150.452 70H144.402V52.25H150.302ZM147.652 67.175H150.302C154.002 67.175 155.802 65.2 155.802 61.15C155.802 57.05 154.002 55.075 150.302 55.075H147.652V67.175ZM161.907 52.25H173.857V55.075H165.157V59.7H173.557V62.5H165.157V67.175H174.057V70H161.907V52.25Z" fill="black"/>
<path d="M53.7094 73.625H53.7083H53.3333C52.4935 73.625 51.688 73.2914 51.0942 72.6975C50.5003 72.1036 50.1667 71.2982 50.1667 70.4583V69.5417C50.1667 68.7018 50.5003 67.8964 51.0942 67.3025C51.688 66.7086 52.4935 66.375 53.3333 66.375H53.7083H53.7094C54.6154 66.3741 55.5053 66.1349 56.2897 65.6815C57.0735 65.2284 57.7246 64.5773 58.1775 63.7934C58.1779 63.7928 58.1782 63.7922 58.1785 63.7917L58.6978 62.8985L58.6994 62.8958C59.1528 62.1104 59.3916 61.2194 59.3916 60.3125C59.3916 59.4115 59.1559 58.5262 58.7082 57.7445L58.549 57.4461C58.5438 57.4363 58.5384 57.4266 58.5329 57.417C58.1137 56.6903 58 55.8271 58.2167 55.0167C58.4334 54.2063 58.9627 53.5151 59.6885 53.0946C59.6886 53.0946 59.6887 53.0945 59.6887 53.0945L60.4788 52.637C60.479 52.637 60.4791 52.6369 60.4793 52.6368C61.2058 52.2178 62.0689 52.1042 62.8792 52.3209C63.6896 52.5376 64.3809 53.067 64.8013 53.7929L64.8092 53.8062L64.9926 54.1119C65.4477 54.8969 66.1014 55.5483 66.8882 56.0004C67.6769 56.4538 68.5714 56.6908 69.4811 56.6875H70.5189C71.4286 56.6908 72.3231 56.4538 73.1118 56.0004C73.9012 55.5468 74.5567 54.8926 75.0119 54.1042C75.0175 54.0944 75.0229 54.0846 75.0282 54.0748L75.186 53.7788C75.6073 53.0601 76.2948 52.5362 77.1 52.3209C77.9104 52.1042 78.7737 52.2179 79.5003 52.637L79.5003 52.6371L79.5087 52.6418L80.316 53.0972C81.0395 53.5179 81.5671 54.208 81.7833 55.0167C82 55.8271 81.8863 56.6903 81.4671 57.417C81.4616 57.4266 81.4562 57.4363 81.451 57.4461L81.2918 57.7445C80.8441 58.5262 80.6084 59.4115 80.6084 60.3125C80.6084 61.2194 80.8472 62.1104 81.3006 62.8958L81.3022 62.8985L81.8215 63.7917C81.8218 63.7922 81.8221 63.7928 81.8225 63.7934C82.2755 64.5773 82.9265 65.2284 83.7103 65.6815C84.4947 66.1349 85.3846 66.3741 86.2906 66.375H86.2917H86.6667C87.5065 66.375 88.312 66.7086 88.9058 67.3025C89.4997 67.8964 89.8333 68.7018 89.8333 69.5417V70.4583C89.8333 71.2982 89.4997 72.1036 88.9058 72.6975C88.312 73.2914 87.5065 73.625 86.6667 73.625L86.2917 73.625L86.2906 73.625C85.3846 73.6259 84.4947 73.8651 83.7103 74.3185C82.9264 74.7716 82.2754 75.4228 81.8224 76.2068C81.8221 76.2073 81.8218 76.2078 81.8215 76.2083L81.3022 77.1015L81.3006 77.1042C80.8472 77.8896 80.6084 78.7806 80.6084 79.6875C80.6084 80.5885 80.8441 81.4738 81.2918 82.2555L81.451 82.5539C81.4562 82.5637 81.4616 82.5734 81.4671 82.583C81.8863 83.3097 82 84.1729 81.7833 84.9833C81.5666 85.7937 81.0373 86.4849 80.3115 86.9054C80.3114 86.9054 80.3114 86.9055 80.3113 86.9055L79.5212 87.363C79.5209 87.3631 79.5207 87.3632 79.5204 87.3634C78.7939 87.7822 77.931 87.8958 77.1208 87.6791C76.3104 87.4624 75.6191 86.933 75.1987 86.2071L75.1908 86.1938L75.0074 85.8882C74.5524 85.1031 73.8986 84.4517 73.1118 83.9996C72.3231 83.5462 71.4286 83.3092 70.5189 83.3125L69.4583 83.3125L69.4523 83.3125C68.5506 83.318 67.6661 83.5593 66.8866 84.0125C66.1169 84.46 65.4761 85.0987 65.026 85.8665L64.8346 86.1536C64.823 86.1711 64.8119 86.1889 64.8013 86.2071C64.3809 86.933 63.6896 87.4624 62.8792 87.6791C62.069 87.8958 61.2059 87.7822 60.4794 87.3632C60.4792 87.3631 60.479 87.363 60.4788 87.363L59.6887 86.9055C59.6887 86.9055 59.6886 86.9054 59.6885 86.9054C58.9627 86.4849 58.4334 85.7937 58.2167 84.9833C58 84.1729 58.1137 83.3097 58.5329 82.583C58.5384 82.5734 58.5438 82.5637 58.549 82.5539L58.7082 82.2555C59.1559 81.4738 59.3916 80.5885 59.3916 79.6875C59.3916 78.7806 59.1528 77.8896 58.6994 77.1042L58.6978 77.1015L58.1785 76.2083C58.1782 76.2078 58.1779 76.2073 58.1776 76.2068C57.7246 75.4228 57.0736 74.7716 56.2897 74.3185C55.5053 73.8651 54.6154 73.6259 53.7094 73.625Z" stroke="#84BA64" stroke-width="2" stroke-linecap="round" stroke-linejoin="round"/>
<path d="M70 64.75C72.8995 64.75 75.25 67.1005 75.25 70C75.25 72.8995 72.8995 75.25 70 75.25C67.1005 75.25 64.75 72.8995 64.75 70C64.75 67.1005 67.1005 64.75 70 64.75Z" stroke="#84BA64" stroke-width="2" stroke-linecap="round" stroke-linejoin="round"/>
<path d="M56.4465 77.2083L56.448 77.211L56.9673 78.1042C56.9676 78.1046 56.9678 78.105 56.968 78.1054C57.2455 78.5865 57.3916 79.1321 57.3916 79.6875C57.3916 80.2434 57.2452 80.7894 56.9673 81.2708C56.9617 81.2805 56.9563 81.2903 56.951 81.3002L56.7917 81.5989C56.115 82.7813 55.9325 84.1834 56.2846 85.5C56.6382 86.8222 57.5019 87.9501 58.6863 88.6362L58.6865 88.6363L59.4781 89.0946L59.4795 89.0954C60.6651 89.7793 62.0736 89.9648 63.3958 89.6112C64.7074 89.2605 65.8277 88.4078 66.5153 87.2382L66.7071 86.9505C66.719 86.9327 66.7303 86.9144 66.741 86.8958C67.0173 86.4172 67.4141 86.0192 67.8919 85.7415C68.3688 85.4642 68.9099 85.3163 69.4616 85.3125L70.5208 85.3125L70.5248 85.3125C71.0828 85.3103 71.6315 85.4555 72.1153 85.7336C72.5991 86.0116 73.0008 86.4126 73.2798 86.8958L73.2883 86.9103L73.4721 87.2166C74.1585 88.3973 75.2846 89.2584 76.6042 89.6112C77.9264 89.9648 79.3349 89.7793 80.5205 89.0954L80.5219 89.0946L81.3135 88.6363L81.3137 88.6362C82.4981 87.9501 83.3619 86.8222 83.7154 85.5C84.0675 84.1834 83.885 82.7812 83.2083 81.5988L83.049 81.3002C83.0437 81.2903 83.0383 81.2805 83.0327 81.2708C82.7548 80.7894 82.6084 80.2434 82.6084 79.6875C82.6084 79.1322 82.7545 78.5866 83.0319 78.1055C83.0322 78.1051 83.0324 78.1046 83.0327 78.1042L83.552 77.211L83.5535 77.2083C83.8312 76.7274 84.2304 76.328 84.7112 76.0501C85.1917 75.7723 85.7368 75.6257 86.2919 75.625C86.2921 75.625 86.2924 75.625 86.2927 75.625L86.6667 75.625C88.037 75.625 89.3511 75.0807 90.3201 74.1117C91.289 73.1428 91.8333 71.8286 91.8333 70.4583V69.5417C91.8333 68.1714 91.289 66.8572 90.3201 65.8883C89.3511 64.9193 88.037 64.375 86.6667 64.375H86.2927C85.7374 64.3744 85.192 64.2278 84.7112 63.9499C84.2304 63.672 83.8312 63.2726 83.5535 62.7917L83.552 62.789L83.0327 61.8958C83.0325 61.8954 83.0322 61.895 83.032 61.8946C82.7545 61.4135 82.6084 60.8679 82.6084 60.3125C82.6084 59.7566 82.7548 59.2106 83.0327 58.7292C83.0361 58.7233 83.0394 58.7174 83.0427 58.7115C83.0448 58.7076 83.0469 58.7037 83.049 58.6998L83.2083 58.4012C83.885 57.2187 84.0675 55.8166 83.7154 54.5C83.3619 53.1778 82.4981 52.0498 81.3137 51.3638L81.3138 51.3638L81.3038 51.3582L80.4997 50.9046C80.4983 50.9038 80.4969 50.903 80.4955 50.9022C79.3108 50.2203 77.904 50.0356 76.5833 50.3887C75.2611 50.7423 74.1332 51.6061 73.4472 52.7905C73.4441 52.7958 73.441 52.8013 73.438 52.8067C73.4353 52.8115 73.4327 52.8163 73.4301 52.8211L73.2719 53.1178C72.9933 53.5949 72.5945 53.991 72.1153 54.2664C71.6315 54.5445 71.0828 54.6897 70.5248 54.6875H70.5208L69.4792 54.6875L69.4752 54.6875C68.9172 54.6897 68.3685 54.5445 67.8847 54.2664C67.4009 53.9884 66.9992 53.5874 66.7202 53.1042L66.7117 53.0897L66.5279 52.7834C65.8415 51.6027 64.7154 50.7416 63.3958 50.3887C62.0736 50.0352 60.6651 50.2207 59.4795 50.9046L59.4781 50.9054L58.6865 51.3637L58.6863 51.3638C57.5019 52.0498 56.6382 53.1778 56.2846 54.5C55.9325 55.8166 56.115 57.2187 56.7917 58.4011L56.951 58.6998C56.9563 58.7096 56.9617 58.7195 56.9673 58.7292C57.2452 59.2106 57.3916 59.7566 57.3916 60.3125C57.3916 60.8679 57.2455 61.4136 56.968 61.8947C56.9677 61.8951 56.9675 61.8954 56.9673 61.8958L56.448 62.789L56.4465 62.7917C56.1688 63.2726 55.7696 63.672 55.2888 63.9499C54.808 64.2278 54.2626 64.3744 53.7073 64.375H53.3333C51.963 64.375 50.6489 64.9193 49.6799 65.8883C48.711 66.8572 48.1667 68.1714 48.1667 69.5417V70.4583C48.1667 71.8286 48.711 73.1428 49.6799 74.1117C50.6489 75.0807 51.963 75.625 53.3333 75.625L53.7073 75.625C53.7076 75.625 53.7079 75.625 53.7081 75.625C54.2632 75.6257 54.8083 75.7723 55.2888 76.0501C55.7696 76.328 56.1688 76.7274 56.4465 77.2083Z" stroke="#2C682C" stroke-width="2" stroke-linecap="round" stroke-linejoin="round"/>
<path d="M77.25 70C77.25 65.9959 74.0041 62.75 70 62.75C65.9959 62.75 62.75 65.9959 62.75 70C62.75 74.0041 65.9959 77.25 70 77.25C74.0041 77.25 77.25 74.0041 77.25 70Z" stroke="#2C682C" stroke-width="2" stroke-linecap="round" stroke-linejoin="round"/>
<path d="M45.125 12.9598L45.1289 12.962L67 25.4598C67.0007 25.4602 67.0013 25.4605 67.002 25.4609C67.7984 25.9212 68.4599 26.5827 68.9203 27.3791C69.381 28.1762 69.6241 29.0804 69.625 30.001V54.999C69.6241 55.9196 69.381 56.8238 68.9203 57.6209C68.4599 58.4174 67.7982 59.079 67.0017 59.5393C67.0011 59.5396 67.0006 59.5399 67 59.5402L45.1289 72.038L45.125 72.0402C44.3269 72.501 43.4216 72.7436 42.5 72.7436C41.5784 72.7436 40.6731 72.501 39.875 72.0402L39.8711 72.038L18 59.5402C17.9994 59.5399 17.9989 59.5396 17.9983 59.5393C17.2018 59.079 16.5401 58.4174 16.0797 57.6209C15.6191 56.824 15.376 55.92 15.375 54.9995V30.0005C15.376 29.08 15.6191 28.176 16.0797 27.3791C16.5401 26.5827 17.2016 25.9212 17.998 25.4609C17.9987 25.4605 17.9993 25.4602 18 25.4598L39.8711 12.962L39.875 12.9598C40.6731 12.499 41.5784 12.2564 42.5 12.2564C43.4216 12.2564 44.3269 12.499 45.125 12.9598Z" stroke="#84BA64" stroke-width="2" stroke-linecap="round" stroke-linejoin="round"/>
<path d="M71.625 55.001V55V30V29.999C71.6237 28.7276 71.2881 27.4789 70.6518 26.3782C70.0156 25.2775 69.101 24.3634 68 23.7277L67.9961 23.7255L46.125 11.2277C46.1243 11.2273 46.1236 11.2269 46.1229 11.2265C45.0213 10.591 43.7718 10.2564 42.5 10.2564C41.2282 10.2564 39.9787 10.591 38.8771 11.2265C38.8764 11.2269 38.8757 11.2273 38.875 11.2277L17.0039 23.7255L17.0039 23.7255L17 23.7277C15.899 24.3634 14.9844 25.2775 14.3482 26.3782C13.7119 27.4789 13.3763 28.7276 13.375 29.999V30L13.375 55L13.375 55.001C13.3763 56.2724 13.7119 57.5211 14.3482 58.6218C14.9844 59.7225 15.899 60.6366 17 61.2723L17.0039 61.2745L38.875 73.7723C38.8758 73.7728 38.8767 73.7732 38.8775 73.7737C39.979 74.4091 41.2283 74.7436 42.5 74.7436C43.7717 74.7436 45.021 74.4091 46.1225 73.7737C46.1233 73.7732 46.1242 73.7728 46.125 73.7723L67.9961 61.2745L68 61.2723C69.101 60.6366 70.0156 59.7225 70.6518 58.6218C71.2881 57.5211 71.6237 56.2724 71.625 55.001Z" stroke="#2C682C" stroke-width="2" stroke-linecap="round" stroke-linejoin="round"/>
</svg>
